<mxfile host="Electron" agent="Mozilla/5.0 (Macintosh; Intel Mac OS X 10_15_7) AppleWebKit/537.36 (KHTML, like Gecko) draw.io/26.0.9 Chrome/128.0.6613.186 Electron/32.2.5 Safari/537.36" version="26.0.9">
  <diagram name="Page-1" id="ciFCiFIXFx5Jne59-s3u">
    <mxGraphModel dx="1434" dy="907" grid="1" gridSize="10" guides="1" tooltips="1" connect="1" arrows="1" fold="1" page="1" pageScale="1" pageWidth="1169" pageHeight="827" math="0" shadow="0" adaptiveColors="none">
      <root>
        <mxCell id="0" />
        <mxCell id="1" parent="0" />
        <mxCell id="9Z52oMfBLxPKPGCtZk0X-129" value="" style="group;movable=1;resizable=1;rotatable=1;deletable=1;editable=1;locked=0;connectable=1;" parent="1" vertex="1" connectable="0">
          <mxGeometry x="160" y="120" width="840" height="880" as="geometry" />
        </mxCell>
        <mxCell id="9Z52oMfBLxPKPGCtZk0X-92" value="" style="rounded=1;whiteSpace=wrap;html=1;container=0;arcSize=6;" parent="9Z52oMfBLxPKPGCtZk0X-129" vertex="1">
          <mxGeometry width="839.9999999999997" height="880" as="geometry" />
        </mxCell>
        <mxCell id="9Z52oMfBLxPKPGCtZk0X-93" value="" style="endArrow=none;html=1;rounded=0;exitX=0;exitY=0.25;exitDx=0;exitDy=0;entryX=1;entryY=0.25;entryDx=0;entryDy=0;" parent="9Z52oMfBLxPKPGCtZk0X-129" edge="1">
          <mxGeometry width="50" height="50" relative="1" as="geometry">
            <mxPoint y="35.202514285714294" as="sourcePoint" />
            <mxPoint x="839.9999999999999" y="35.202514285714294" as="targetPoint" />
          </mxGeometry>
        </mxCell>
        <mxCell id="9Z52oMfBLxPKPGCtZk0X-94" value="&lt;b&gt;&lt;font style=&quot;font-size: 12px;&quot;&gt;Login Flow (OAuth 2.0)&lt;/font&gt;&lt;/b&gt;" style="text;html=1;align=center;verticalAlign=middle;whiteSpace=wrap;rounded=0;fontSize=8;container=0;" parent="9Z52oMfBLxPKPGCtZk0X-129" vertex="1">
          <mxGeometry width="840" height="35.2" as="geometry" />
        </mxCell>
        <mxCell id="9Z52oMfBLxPKPGCtZk0X-1" value="Client&lt;div&gt;(Postman)&lt;/div&gt;" style="rounded=1;whiteSpace=wrap;html=1;" parent="1" vertex="1">
          <mxGeometry x="240" y="200" width="120" height="60" as="geometry" />
        </mxCell>
        <mxCell id="9Z52oMfBLxPKPGCtZk0X-2" value="User-Agent&lt;div&gt;(Web Browser)&lt;/div&gt;" style="rounded=1;whiteSpace=wrap;html=1;" parent="1" vertex="1">
          <mxGeometry x="520" y="200" width="120" height="60" as="geometry" />
        </mxCell>
        <mxCell id="9Z52oMfBLxPKPGCtZk0X-5" value="&lt;span style=&quot;font-size: 11px; text-wrap: nowrap; background-color: rgb(255, 255, 255);&quot;&gt;REDIRECT:&amp;nbsp;&lt;/span&gt;&lt;div&gt;&lt;span style=&quot;font-size: 11px; text-wrap: nowrap; background-color: rgb(255, 255, 255);&quot;&gt;[UserService]/oauth2/&lt;b&gt;authorize&lt;/b&gt;?&lt;/span&gt;&lt;div&gt;&lt;span style=&quot;background-color: transparent; font-size: 11px; text-wrap: nowrap;&quot;&gt;&lt;b&gt;response_type&lt;/b&gt;=code&amp;amp;&lt;/span&gt;&lt;/div&gt;&lt;div&gt;&lt;span style=&quot;font-size: 11px; background-color: transparent; color: light-dark(rgb(0, 0, 0), rgb(255, 255, 255));&quot;&gt;&lt;b&gt;client_id&lt;/b&gt;=oidc-client&amp;amp;&lt;/span&gt;&lt;/div&gt;&lt;div&gt;&lt;span style=&quot;font-size: 11px; background-color: transparent; color: light-dark(rgb(0, 0, 0), rgb(255, 255, 255));&quot;&gt;&lt;b&gt;scope&lt;/b&gt;=profile&amp;amp;&lt;/span&gt;&lt;/div&gt;&lt;div&gt;&lt;span style=&quot;font-size: 11px; background-color: transparent; color: light-dark(rgb(0, 0, 0), rgb(255, 255, 255));&quot;&gt;&lt;b&gt;redirect_uri&lt;/b&gt;=&lt;/span&gt;&lt;span style=&quot;background-color: transparent; font-size: 11px;&quot;&gt;https://oauth.pstmn.io/v1/callback&lt;/span&gt;&lt;/div&gt;&lt;/div&gt;" style="text;html=1;align=center;verticalAlign=middle;whiteSpace=wrap;rounded=0;rotation=0;" parent="1" vertex="1">
          <mxGeometry x="300" y="330" width="280" height="90" as="geometry" />
        </mxCell>
        <mxCell id="9Z52oMfBLxPKPGCtZk0X-8" value="" style="endArrow=none;dashed=1;html=1;rounded=0;entryX=0.5;entryY=1;entryDx=0;entryDy=0;" parent="1" target="9Z52oMfBLxPKPGCtZk0X-1" edge="1">
          <mxGeometry width="50" height="50" relative="1" as="geometry">
            <mxPoint x="300" y="970" as="sourcePoint" />
            <mxPoint x="330" y="350" as="targetPoint" />
          </mxGeometry>
        </mxCell>
        <mxCell id="9Z52oMfBLxPKPGCtZk0X-9" value="" style="endArrow=none;dashed=1;html=1;rounded=0;entryX=0.5;entryY=1;entryDx=0;entryDy=0;" parent="1" edge="1">
          <mxGeometry width="50" height="50" relative="1" as="geometry">
            <mxPoint x="580" y="670" as="sourcePoint" />
            <mxPoint x="579.6800000000001" y="260" as="targetPoint" />
          </mxGeometry>
        </mxCell>
        <mxCell id="9Z52oMfBLxPKPGCtZk0X-10" value="" style="endArrow=classic;html=1;rounded=0;" parent="1" edge="1">
          <mxGeometry width="50" height="50" relative="1" as="geometry">
            <mxPoint x="300" y="420" as="sourcePoint" />
            <mxPoint x="580" y="420" as="targetPoint" />
          </mxGeometry>
        </mxCell>
        <mxCell id="9Z52oMfBLxPKPGCtZk0X-11" value="Auth Server&lt;div&gt;(UserService)&lt;/div&gt;" style="rounded=1;whiteSpace=wrap;html=1;" parent="1" vertex="1">
          <mxGeometry x="800" y="200" width="120" height="60" as="geometry" />
        </mxCell>
        <mxCell id="9Z52oMfBLxPKPGCtZk0X-12" value="" style="endArrow=none;dashed=1;html=1;rounded=0;entryX=0.5;entryY=1;entryDx=0;entryDy=0;" parent="1" edge="1">
          <mxGeometry width="50" height="50" relative="1" as="geometry">
            <mxPoint x="860" y="970" as="sourcePoint" />
            <mxPoint x="859.6800000000001" y="260" as="targetPoint" />
          </mxGeometry>
        </mxCell>
        <mxCell id="9Z52oMfBLxPKPGCtZk0X-13" value="" style="endArrow=classic;html=1;rounded=0;" parent="1" edge="1">
          <mxGeometry width="50" height="50" relative="1" as="geometry">
            <mxPoint x="580" y="419.35" as="sourcePoint" />
            <mxPoint x="860" y="419.35" as="targetPoint" />
          </mxGeometry>
        </mxCell>
        <mxCell id="9Z52oMfBLxPKPGCtZk0X-14" value="&lt;div&gt;&lt;span style=&quot;font-size: 11px; text-wrap: nowrap; background-color: rgb(255, 255, 255);&quot;&gt;GET:&lt;/span&gt;&lt;/div&gt;&lt;span style=&quot;font-size: 11px; text-wrap: nowrap; background-color: rgb(255, 255, 255);&quot;&gt;[UserService]/oauth2/&lt;b&gt;authorize&lt;/b&gt;?&lt;/span&gt;&lt;div&gt;&lt;span style=&quot;background-color: transparent; font-size: 11px; text-wrap: nowrap;&quot;&gt;&lt;b&gt;response_type&lt;/b&gt;=code&amp;amp;&lt;/span&gt;&lt;/div&gt;&lt;div&gt;&lt;span style=&quot;font-size: 11px; background-color: transparent; color: light-dark(rgb(0, 0, 0), rgb(255, 255, 255));&quot;&gt;&lt;b&gt;client_id&lt;/b&gt;=oidc-client&amp;amp;&lt;/span&gt;&lt;/div&gt;&lt;div&gt;&lt;span style=&quot;font-size: 11px; background-color: transparent; color: light-dark(rgb(0, 0, 0), rgb(255, 255, 255));&quot;&gt;&lt;b&gt;scope&lt;/b&gt;=profile&amp;amp;&lt;/span&gt;&lt;/div&gt;&lt;div&gt;&lt;span style=&quot;font-size: 11px; background-color: transparent; color: light-dark(rgb(0, 0, 0), rgb(255, 255, 255));&quot;&gt;&lt;b&gt;redirect_uri&lt;/b&gt;=&lt;/span&gt;&lt;span style=&quot;background-color: transparent; font-size: 11px;&quot;&gt;https://oauth.pstmn.io/v1/callback&lt;/span&gt;&lt;/div&gt;" style="text;html=1;align=center;verticalAlign=middle;whiteSpace=wrap;rounded=0;rotation=0;" parent="1" vertex="1">
          <mxGeometry x="580" y="330" width="280" height="90" as="geometry" />
        </mxCell>
        <mxCell id="9Z52oMfBLxPKPGCtZk0X-15" value="" style="endArrow=classic;html=1;rounded=0;" parent="1" edge="1">
          <mxGeometry width="50" height="50" relative="1" as="geometry">
            <mxPoint x="860" y="500" as="sourcePoint" />
            <mxPoint x="580" y="500" as="targetPoint" />
          </mxGeometry>
        </mxCell>
        <mxCell id="9Z52oMfBLxPKPGCtZk0X-16" value="&lt;div&gt;&lt;span style=&quot;font-size: 11px; text-wrap: nowrap; background-color: rgb(255, 255, 255);&quot;&gt;REDIRECT:&lt;/span&gt;&lt;/div&gt;&lt;span style=&quot;font-size: 11px; text-wrap: nowrap; background-color: rgb(255, 255, 255);&quot;&gt;[UserService]/&lt;b&gt;login&lt;/b&gt;&lt;/span&gt;" style="text;html=1;align=center;verticalAlign=middle;whiteSpace=wrap;rounded=0;rotation=0;" parent="1" vertex="1">
          <mxGeometry x="580" y="460" width="280" height="40" as="geometry" />
        </mxCell>
        <mxCell id="9Z52oMfBLxPKPGCtZk0X-17" value="&lt;div&gt;&lt;span style=&quot;font-size: 11px; text-wrap: nowrap; background-color: rgb(255, 255, 255);&quot;&gt;POST:&lt;/span&gt;&lt;/div&gt;&lt;span style=&quot;font-size: 11px; text-wrap: nowrap; background-color: rgb(255, 255, 255);&quot;&gt;[UserService]/&lt;b&gt;login&lt;/b&gt;&lt;/span&gt;" style="text;html=1;align=center;verticalAlign=middle;whiteSpace=wrap;rounded=0;rotation=0;" parent="1" vertex="1">
          <mxGeometry x="580" y="534" width="280" height="40" as="geometry" />
        </mxCell>
        <mxCell id="9Z52oMfBLxPKPGCtZk0X-18" value="" style="endArrow=classic;html=1;rounded=0;" parent="1" edge="1">
          <mxGeometry width="50" height="50" relative="1" as="geometry">
            <mxPoint x="580" y="573" as="sourcePoint" />
            <mxPoint x="860" y="573" as="targetPoint" />
          </mxGeometry>
        </mxCell>
        <mxCell id="9Z52oMfBLxPKPGCtZk0X-20" value="&lt;div&gt;&lt;span style=&quot;font-size: 11px; text-wrap: nowrap; background-color: rgb(255, 255, 255);&quot;&gt;REDIRECT:&lt;/span&gt;&lt;/div&gt;&lt;span style=&quot;font-size: 11px; text-wrap: nowrap; background-color: rgb(255, 255, 255);&quot;&gt;[Postman]/v1/&lt;b&gt;callback&lt;/b&gt;?&lt;/span&gt;&lt;div&gt;&lt;span style=&quot;font-size: 11px; text-wrap: nowrap; background-color: rgb(255, 255, 255);&quot;&gt;code=[authorization_code]&lt;/span&gt;&lt;/div&gt;" style="text;html=1;align=center;verticalAlign=middle;whiteSpace=wrap;rounded=0;rotation=0;" parent="1" vertex="1">
          <mxGeometry x="580" y="610" width="280" height="40" as="geometry" />
        </mxCell>
        <mxCell id="9Z52oMfBLxPKPGCtZk0X-22" value="" style="endArrow=classic;html=1;rounded=0;" parent="1" edge="1">
          <mxGeometry width="50" height="50" relative="1" as="geometry">
            <mxPoint x="860" y="660" as="sourcePoint" />
            <mxPoint x="580" y="660" as="targetPoint" />
          </mxGeometry>
        </mxCell>
        <mxCell id="9Z52oMfBLxPKPGCtZk0X-23" value="&lt;div&gt;&lt;span style=&quot;font-size: 11px; text-wrap: nowrap; background-color: rgb(255, 255, 255);&quot;&gt;GET:&lt;/span&gt;&lt;/div&gt;&lt;span style=&quot;font-size: 11px; text-wrap: nowrap; background-color: rgb(255, 255, 255);&quot;&gt;[Postman]/v1/&lt;b&gt;callback&lt;/b&gt;?&lt;/span&gt;&lt;div&gt;&lt;span style=&quot;font-size: 11px; text-wrap: nowrap; background-color: rgb(255, 255, 255);&quot;&gt;code=[authorization_code]&lt;/span&gt;&lt;/div&gt;" style="text;html=1;align=center;verticalAlign=middle;whiteSpace=wrap;rounded=0;rotation=0;" parent="1" vertex="1">
          <mxGeometry x="300" y="610" width="280" height="40" as="geometry" />
        </mxCell>
        <mxCell id="9Z52oMfBLxPKPGCtZk0X-24" value="" style="endArrow=classic;html=1;rounded=0;" parent="1" edge="1">
          <mxGeometry width="50" height="50" relative="1" as="geometry">
            <mxPoint x="580" y="660" as="sourcePoint" />
            <mxPoint x="300" y="660" as="targetPoint" />
          </mxGeometry>
        </mxCell>
        <mxCell id="9Z52oMfBLxPKPGCtZk0X-25" value="&lt;span style=&quot;font-size: 11px; text-wrap: nowrap; background-color: rgb(255, 255, 255);&quot;&gt;GET:&amp;nbsp;&lt;/span&gt;&lt;div&gt;&lt;span style=&quot;font-size: 11px; text-wrap: nowrap; background-color: rgb(255, 255, 255);&quot;&gt;[UserService]/oauth2/&lt;b&gt;token&lt;/b&gt;?&lt;/span&gt;&lt;div&gt;&lt;span style=&quot;font-size: 11px; background-color: transparent; color: light-dark(rgb(0, 0, 0), rgb(255, 255, 255));&quot;&gt;&lt;b&gt;client_id&lt;/b&gt;=oidc-client&amp;amp;&lt;/span&gt;&lt;/div&gt;&lt;div&gt;&lt;span style=&quot;font-size: 11px; background-color: transparent; color: light-dark(rgb(0, 0, 0), rgb(255, 255, 255));&quot;&gt;&lt;b&gt;client_secret&lt;/b&gt;=secret&amp;amp;&lt;/span&gt;&lt;/div&gt;&lt;div&gt;&lt;div&gt;&lt;span style=&quot;background-color: transparent; font-size: 11px; text-wrap: nowrap;&quot;&gt;&lt;b&gt;grant_type&lt;/b&gt;=authorization_code&amp;amp;&lt;/span&gt;&lt;/div&gt;&lt;div&gt;&lt;span style=&quot;font-size: 11px; text-wrap: nowrap; background-color: rgb(255, 255, 255);&quot;&gt;&lt;b&gt;code&lt;/b&gt;=[authorization_code]&lt;/span&gt;&lt;/div&gt;&lt;/div&gt;&lt;div&gt;&lt;span style=&quot;font-size: 11px; background-color: transparent; color: light-dark(rgb(0, 0, 0), rgb(255, 255, 255));&quot;&gt;&lt;b&gt;redirect_uri&lt;/b&gt;=&lt;/span&gt;&lt;span style=&quot;background-color: transparent; font-size: 11px;&quot;&gt;https://oauth.pstmn.io/v1/callback&lt;/span&gt;&lt;/div&gt;&lt;/div&gt;" style="text;html=1;align=center;verticalAlign=middle;whiteSpace=wrap;rounded=0;rotation=0;" parent="1" vertex="1">
          <mxGeometry x="440" y="680" width="280" height="100" as="geometry" />
        </mxCell>
        <mxCell id="9Z52oMfBLxPKPGCtZk0X-26" value="" style="endArrow=classic;html=1;rounded=0;" parent="1" edge="1">
          <mxGeometry width="50" height="50" relative="1" as="geometry">
            <mxPoint x="300" y="780" as="sourcePoint" />
            <mxPoint x="860" y="780" as="targetPoint" />
          </mxGeometry>
        </mxCell>
        <mxCell id="9Z52oMfBLxPKPGCtZk0X-27" value="&lt;div&gt;&lt;span style=&quot;font-size: 11px; text-wrap: nowrap; background-color: rgb(255, 255, 255);&quot;&gt;POST:&lt;/span&gt;&lt;/div&gt;&lt;span style=&quot;text-wrap: nowrap; font-size: 11px; background-color: rgb(255, 255, 255);&quot;&gt;[Postman]/v1/callback&lt;br&gt;&lt;/span&gt;&lt;div&gt;&lt;span style=&quot;text-wrap: nowrap; font-size: 11px; background-color: rgb(255, 255, 255);&quot;&gt;body :&amp;nbsp;&lt;/span&gt;&lt;span style=&quot;background-color: transparent; font-size: 11px; text-wrap: nowrap;&quot;&gt;{&lt;/span&gt;&lt;/div&gt;&lt;div&gt;&lt;span style=&quot;font-size: 11px; white-space-collapse: collapse;&quot;&gt;&lt;span style=&quot;white-space:pre&quot;&gt;&#x9;&lt;/span&gt;&quot;access_token&quot;:&quot;&lt;b&gt;ACCESS_TOKEN(JWT)&lt;/b&gt;&quot;,&lt;/span&gt;&lt;/div&gt;&lt;div&gt;&lt;span style=&quot;font-size: 11px; white-space-collapse: collapse;&quot;&gt;&lt;span style=&quot;white-space:pre&quot;&gt;&#x9;&lt;/span&gt;&quot;token_type&quot;:&quot;Bearer&quot;,&lt;/span&gt;&lt;/div&gt;&lt;div&gt;&lt;span style=&quot;font-size: 11px; white-space-collapse: collapse;&quot;&gt;&lt;span style=&quot;white-space:pre&quot;&gt;&#x9;&lt;/span&gt;&quot;expires_in&quot;:2592000,&lt;/span&gt;&lt;/div&gt;&lt;div&gt;&lt;span style=&quot;font-size: 11px; white-space-collapse: collapse;&quot;&gt;&lt;span style=&quot;white-space:pre&quot;&gt;&#x9;&lt;/span&gt;&quot;refresh_token&quot;:&quot;REFRESH_TOKEN&quot;,&lt;/span&gt;&lt;/div&gt;&lt;div&gt;&lt;span style=&quot;font-size: 11px; white-space-collapse: collapse;&quot;&gt;&lt;span style=&quot;white-space:pre&quot;&gt;&#x9;&lt;/span&gt;&quot;scope&quot;:&quot;profile&quot;&lt;/span&gt;&lt;/div&gt;&lt;div&gt;&lt;span style=&quot;font-size: 11px; text-wrap: nowrap;&quot;&gt;}&lt;/span&gt;&lt;/div&gt;" style="text;html=1;align=center;verticalAlign=middle;whiteSpace=wrap;rounded=0;rotation=0;" parent="1" vertex="1">
          <mxGeometry x="440" y="810" width="280" height="130" as="geometry" />
        </mxCell>
        <mxCell id="9Z52oMfBLxPKPGCtZk0X-28" value="" style="endArrow=classic;html=1;rounded=0;" parent="1" edge="1">
          <mxGeometry width="50" height="50" relative="1" as="geometry">
            <mxPoint x="860" y="950" as="sourcePoint" />
            <mxPoint x="300" y="950" as="targetPoint" />
          </mxGeometry>
        </mxCell>
        <mxCell id="9Z52oMfBLxPKPGCtZk0X-35" value="" style="group" parent="1" vertex="1" connectable="0">
          <mxGeometry x="430" y="420" width="10" height="10" as="geometry" />
        </mxCell>
        <mxCell id="9Z52oMfBLxPKPGCtZk0X-31" value="" style="ellipse;whiteSpace=wrap;html=1;aspect=fixed;strokeWidth=1;" parent="9Z52oMfBLxPKPGCtZk0X-35" vertex="1">
          <mxGeometry width="10" height="10" as="geometry" />
        </mxCell>
        <mxCell id="9Z52oMfBLxPKPGCtZk0X-34" value="&lt;font style=&quot;font-size: 10px;&quot;&gt;1&lt;/font&gt;" style="text;html=1;align=center;verticalAlign=middle;whiteSpace=wrap;rounded=0;perimeter=ellipsePerimeter;" parent="9Z52oMfBLxPKPGCtZk0X-35" vertex="1">
          <mxGeometry width="10" height="10" as="geometry" />
        </mxCell>
        <mxCell id="9Z52oMfBLxPKPGCtZk0X-36" value="" style="group" parent="1" vertex="1" connectable="0">
          <mxGeometry x="710" y="420" width="10" height="10" as="geometry" />
        </mxCell>
        <mxCell id="9Z52oMfBLxPKPGCtZk0X-37" value="" style="ellipse;whiteSpace=wrap;html=1;aspect=fixed;strokeWidth=1;" parent="9Z52oMfBLxPKPGCtZk0X-36" vertex="1">
          <mxGeometry width="10" height="10" as="geometry" />
        </mxCell>
        <mxCell id="9Z52oMfBLxPKPGCtZk0X-38" value="&lt;font style=&quot;font-size: 10px;&quot;&gt;2&lt;/font&gt;" style="text;html=1;align=center;verticalAlign=middle;whiteSpace=wrap;rounded=0;perimeter=ellipsePerimeter;" parent="9Z52oMfBLxPKPGCtZk0X-36" vertex="1">
          <mxGeometry width="10" height="10" as="geometry" />
        </mxCell>
        <mxCell id="9Z52oMfBLxPKPGCtZk0X-39" value="" style="group" parent="1" vertex="1" connectable="0">
          <mxGeometry x="710" y="500" width="10" height="10" as="geometry" />
        </mxCell>
        <mxCell id="9Z52oMfBLxPKPGCtZk0X-40" value="" style="ellipse;whiteSpace=wrap;html=1;aspect=fixed;strokeWidth=1;" parent="9Z52oMfBLxPKPGCtZk0X-39" vertex="1">
          <mxGeometry width="10" height="10" as="geometry" />
        </mxCell>
        <mxCell id="9Z52oMfBLxPKPGCtZk0X-41" value="&lt;font style=&quot;font-size: 10px;&quot;&gt;3&lt;/font&gt;" style="text;html=1;align=center;verticalAlign=middle;whiteSpace=wrap;rounded=0;perimeter=ellipsePerimeter;" parent="9Z52oMfBLxPKPGCtZk0X-39" vertex="1">
          <mxGeometry width="10" height="10" as="geometry" />
        </mxCell>
        <mxCell id="9Z52oMfBLxPKPGCtZk0X-42" value="" style="group" parent="1" vertex="1" connectable="0">
          <mxGeometry x="710" y="574" width="10" height="10" as="geometry" />
        </mxCell>
        <mxCell id="9Z52oMfBLxPKPGCtZk0X-43" value="" style="ellipse;whiteSpace=wrap;html=1;aspect=fixed;strokeWidth=1;" parent="9Z52oMfBLxPKPGCtZk0X-42" vertex="1">
          <mxGeometry width="10" height="10" as="geometry" />
        </mxCell>
        <mxCell id="9Z52oMfBLxPKPGCtZk0X-44" value="&lt;font style=&quot;font-size: 10px;&quot;&gt;4&lt;/font&gt;" style="text;html=1;align=center;verticalAlign=middle;whiteSpace=wrap;rounded=0;perimeter=ellipsePerimeter;" parent="9Z52oMfBLxPKPGCtZk0X-42" vertex="1">
          <mxGeometry width="10" height="10" as="geometry" />
        </mxCell>
        <mxCell id="9Z52oMfBLxPKPGCtZk0X-45" value="" style="group" parent="1" vertex="1" connectable="0">
          <mxGeometry x="710" y="660" width="10" height="10" as="geometry" />
        </mxCell>
        <mxCell id="9Z52oMfBLxPKPGCtZk0X-46" value="" style="ellipse;whiteSpace=wrap;html=1;aspect=fixed;strokeWidth=1;" parent="9Z52oMfBLxPKPGCtZk0X-45" vertex="1">
          <mxGeometry width="10" height="10" as="geometry" />
        </mxCell>
        <mxCell id="9Z52oMfBLxPKPGCtZk0X-47" value="&lt;font style=&quot;font-size: 10px;&quot;&gt;5&lt;/font&gt;" style="text;html=1;align=center;verticalAlign=middle;whiteSpace=wrap;rounded=0;perimeter=ellipsePerimeter;" parent="9Z52oMfBLxPKPGCtZk0X-45" vertex="1">
          <mxGeometry width="10" height="10" as="geometry" />
        </mxCell>
        <mxCell id="9Z52oMfBLxPKPGCtZk0X-48" value="" style="group" parent="1" vertex="1" connectable="0">
          <mxGeometry x="430" y="660" width="10" height="10" as="geometry" />
        </mxCell>
        <mxCell id="9Z52oMfBLxPKPGCtZk0X-49" value="" style="ellipse;whiteSpace=wrap;html=1;aspect=fixed;strokeWidth=1;" parent="9Z52oMfBLxPKPGCtZk0X-48" vertex="1">
          <mxGeometry width="10" height="10" as="geometry" />
        </mxCell>
        <mxCell id="9Z52oMfBLxPKPGCtZk0X-50" value="&lt;font style=&quot;font-size: 10px;&quot;&gt;6&lt;/font&gt;" style="text;html=1;align=center;verticalAlign=middle;whiteSpace=wrap;rounded=0;perimeter=ellipsePerimeter;" parent="9Z52oMfBLxPKPGCtZk0X-48" vertex="1">
          <mxGeometry width="10" height="10" as="geometry" />
        </mxCell>
        <mxCell id="9Z52oMfBLxPKPGCtZk0X-51" value="" style="group" parent="1" vertex="1" connectable="0">
          <mxGeometry x="570" y="780" width="10" height="10" as="geometry" />
        </mxCell>
        <mxCell id="9Z52oMfBLxPKPGCtZk0X-52" value="" style="ellipse;whiteSpace=wrap;html=1;aspect=fixed;strokeWidth=1;" parent="9Z52oMfBLxPKPGCtZk0X-51" vertex="1">
          <mxGeometry width="10" height="10" as="geometry" />
        </mxCell>
        <mxCell id="9Z52oMfBLxPKPGCtZk0X-53" value="&lt;font style=&quot;font-size: 10px;&quot;&gt;7&lt;/font&gt;" style="text;html=1;align=center;verticalAlign=middle;whiteSpace=wrap;rounded=0;perimeter=ellipsePerimeter;" parent="9Z52oMfBLxPKPGCtZk0X-51" vertex="1">
          <mxGeometry width="10" height="10" as="geometry" />
        </mxCell>
        <mxCell id="9Z52oMfBLxPKPGCtZk0X-54" value="" style="group" parent="1" vertex="1" connectable="0">
          <mxGeometry x="570" y="950" width="10" height="10" as="geometry" />
        </mxCell>
        <mxCell id="9Z52oMfBLxPKPGCtZk0X-55" value="" style="ellipse;whiteSpace=wrap;html=1;aspect=fixed;strokeWidth=1;" parent="9Z52oMfBLxPKPGCtZk0X-54" vertex="1">
          <mxGeometry width="10" height="10" as="geometry" />
        </mxCell>
        <mxCell id="9Z52oMfBLxPKPGCtZk0X-56" value="&lt;font style=&quot;font-size: 10px;&quot;&gt;8&lt;/font&gt;" style="text;html=1;align=center;verticalAlign=middle;whiteSpace=wrap;rounded=0;perimeter=ellipsePerimeter;" parent="9Z52oMfBLxPKPGCtZk0X-54" vertex="1">
          <mxGeometry width="10" height="10" as="geometry" />
        </mxCell>
      </root>
    </mxGraphModel>
  </diagram>
</mxfile>
